<?xml version="1.0" encoding="UTF-8"?>
<svg xmlns="http://www.w3.org/2000/svg" xmlns:xlink="http://www.w3.org/1999/xlink" width="32px" height="32px" viewBox="0 0 32 32" version="1.1">
<g id="surface1">
<path style=" stroke:none;fill-rule:nonzero;fill:rgb(100%,100%,100%);fill-opacity:1;" d="M 25.726562 2.144531 L 16.054688 2.144531 C 16.035156 2.144531 16.019531 2.132812 16 2.132812 C 15.980469 2.132812 15.964844 2.144531 15.945312 2.144531 L 3.199219 2.144531 C 2.617188 2.144531 2.144531 2.617188 2.144531 3.199219 L 2.144531 28.800781 C 2.144531 29.382812 2.617188 29.855469 3.199219 29.855469 L 15.945312 29.855469 C 15.960938 29.855469 15.980469 29.867188 16 29.867188 C 16.019531 29.867188 16.039062 29.855469 16.054688 29.855469 L 28.800781 29.855469 C 29.382812 29.855469 29.855469 29.382812 29.855469 28.800781 L 29.855469 6.273438 C 29.855469 3.992188 28.007812 2.144531 25.726562 2.144531 Z M 27.742188 6.273438 L 27.742188 14.933594 L 17.066406 14.933594 L 17.066406 4.257812 L 25.726562 4.257812 C 26.839844 4.257812 27.742188 5.160156 27.742188 6.273438 Z M 4.257812 4.257812 L 14.933594 4.257812 L 14.933594 27.742188 L 4.257812 27.742188 Z M 17.066406 27.742188 L 17.066406 17.066406 L 27.742188 17.066406 L 27.742188 27.742188 Z M 17.066406 27.742188 "/>
</g>
</svg>
