<?xml version="1.0" encoding="UTF-8"?>
<svg xmlns="http://www.w3.org/2000/svg" xmlns:xlink="http://www.w3.org/1999/xlink" width="32px" height="32px" viewBox="0 0 32 32" version="1.1">
<g id="surface1">
<path style=" stroke:none;fill-rule:nonzero;fill:rgb(100%,100%,100%);fill-opacity:1;" d="M 21.332031 27.734375 L 4.265625 27.734375 L 4.265625 8.535156 C 4.265625 6.175781 6.175781 4.265625 8.535156 4.265625 L 21.332031 4.265625 L 21.332031 11.734375 L 23.464844 11.734375 L 23.464844 3.199219 C 23.464844 2.613281 22.988281 2.132812 22.398438 2.132812 L 8.535156 2.132812 C 5.003906 2.132812 2.132812 5.003906 2.132812 8.535156 L 2.132812 28.800781 C 2.132812 29.386719 2.613281 29.867188 3.199219 29.867188 L 22.398438 29.867188 C 22.988281 29.867188 23.464844 29.386719 23.464844 28.800781 L 23.464844 25.601562 L 21.332031 25.601562 Z M 21.332031 27.734375 "/>
<path style=" stroke:none;fill-rule:nonzero;fill:rgb(100%,100%,100%);fill-opacity:1;" d="M 24.535156 13.867188 L 21.332031 13.867188 L 21.332031 23.464844 L 24 23.464844 C 27.199219 23.464844 28.800781 21.980469 28.800781 18.667969 C 28.800781 15.230469 27.199219 13.867188 24.535156 13.867188 Z M 24.535156 21.867188 L 23.464844 21.867188 L 23.464844 15.464844 L 24.535156 15.464844 C 26.132812 15.464844 26.667969 16.847656 26.667969 18.667969 C 26.667969 20.738281 25.601562 21.867188 24.535156 21.867188 Z M 16.339844 21.429688 C 15.558594 21.359375 14.886719 21.082031 14.269531 20.824219 L 14.042969 23.21875 C 14.707031 23.382812 15.417969 23.464844 16.308594 23.464844 C 19.074219 23.464844 20.265625 21.929688 20.265625 20.128906 C 20.265625 17.160156 16.007812 17.882812 16.007812 16.410156 C 16.007812 15.878906 16.527344 15.605469 17.425781 15.679688 C 17.984375 15.71875 18.546875 15.988281 19.070312 16.175781 L 19.535156 13.902344 C 18.988281 13.773438 18.054688 13.636719 17.558594 13.636719 C 15.164062 13.636719 13.867188 14.90625 13.867188 16.671875 C 13.867188 19.828125 18.460938 19.148438 18.121094 20.714844 C 17.96875 21.429688 17.003906 21.492188 16.339844 21.429688 Z M 6.398438 13.867188 L 6.398438 23.464844 L 8.535156 23.464844 L 8.535156 20.265625 C 8.699219 20.277344 8.980469 20.265625 9.066406 20.265625 C 11.066406 20.265625 12.800781 19.199219 12.800781 17.066406 C 12.800781 14.398438 10.667969 13.867188 8.535156 13.867188 Z M 9.066406 15.464844 C 10.132812 15.464844 10.667969 16 10.667969 17.066406 C 10.667969 18.132812 10.132812 18.667969 9.066406 18.667969 C 8.96875 18.667969 8.652344 18.675781 8.535156 18.667969 L 8.535156 15.464844 C 8.660156 15.457031 8.929688 15.464844 9.066406 15.464844 Z M 9.066406 15.464844 "/>
</g>
</svg>
