<?xml version="1.0" encoding="UTF-8"?>
<svg xmlns="http://www.w3.org/2000/svg" xmlns:xlink="http://www.w3.org/1999/xlink" width="32px" height="32px" viewBox="0 0 32 32" version="1.1">
<g id="surface1">
<path style=" stroke:none;fill-rule:nonzero;fill:rgb(100%,100%,100%);fill-opacity:1;" d="M 26.667969 9.601562 L 24.125 9.601562 L 22.289062 5.921875 C 22.105469 5.5625 21.738281 5.332031 21.332031 5.332031 L 10.667969 5.332031 C 10.261719 5.332031 9.894531 5.5625 9.710938 5.921875 L 7.875 9.601562 L 5.332031 9.601562 C 3.570312 9.601562 2.132812 11.035156 2.132812 12.800781 L 2.132812 23.464844 C 2.132812 25.230469 3.570312 26.667969 5.332031 26.667969 L 26.667969 26.667969 C 28.429688 26.667969 29.867188 25.230469 29.867188 23.464844 L 29.867188 12.800781 C 29.867188 11.035156 28.429688 9.601562 26.667969 9.601562 Z M 27.734375 23.464844 C 27.734375 24.054688 27.253906 24.535156 26.667969 24.535156 L 5.332031 24.535156 C 4.746094 24.535156 4.265625 24.054688 4.265625 23.464844 L 4.265625 12.800781 C 4.265625 12.210938 4.746094 11.734375 5.332031 11.734375 L 8.535156 11.734375 C 8.9375 11.734375 9.304688 11.503906 9.488281 11.144531 L 11.328125 7.464844 L 20.675781 7.464844 L 22.515625 11.144531 C 22.695312 11.503906 23.0625 11.734375 23.464844 11.734375 L 26.667969 11.734375 C 27.253906 11.734375 27.734375 12.210938 27.734375 12.800781 Z M 27.734375 23.464844 "/>
<path style=" stroke:none;fill-rule:nonzero;fill:rgb(100%,100%,100%);fill-opacity:1;" d="M 16 11.734375 C 13.058594 11.734375 10.667969 14.125 10.667969 17.066406 C 10.667969 20.007812 13.058594 22.398438 16 22.398438 C 18.941406 22.398438 21.332031 20.007812 21.332031 17.066406 C 21.332031 14.125 18.941406 11.734375 16 11.734375 Z M 16 20.265625 C 14.234375 20.265625 12.800781 18.832031 12.800781 17.066406 C 12.800781 15.300781 14.234375 13.867188 16 13.867188 C 17.765625 13.867188 19.199219 15.300781 19.199219 17.066406 C 19.199219 18.832031 17.765625 20.265625 16 20.265625 Z M 16 20.265625 "/>
</g>
</svg>
